M48
METRIC,LZ,000.000
;FILE_FORMAT=3:3
;TYPE=PLATED
;Layer: PTH_Through
;EasyEDA v6.5.46, 2024-09-03 21:34:31
;a3a5ef0e5d234bae984b2533349a5239,230d3d8e61244ae18bc76ebd04fb3888,10
;Gerber Generator version 0.2
;Holesize 1 = 0.701 mm
T01C0.701
;Holesize 2 = 0.800 mm
T02C0.800
;Holesize 3 = 0.900 mm
T03C0.900
;Holesize 4 = 0.915 mm
T04C0.915
;Holesize 5 = 1.000 mm
T05C1.000
;Holesize 6 = 1.101 mm
T06C1.101
;Holesize 7 = 3.000 mm
T07C3.000
%
G05
G90
T01
X053848Y059309
X053848Y064389
X061595Y059182
X061595Y064262
X067945Y049911
X073025Y049911
X061595Y049530
X061595Y054610
X053848Y049657
X053848Y054737
X036195Y069342
X036195Y070612
X036195Y071882
X023368Y069088
X023368Y070358
X023368Y071628
T02
X087122Y018542
X089662Y018542
X092202Y018542
X094742Y018542
X097282Y018542
X084582Y018542
X047879Y059320
X047879Y056780
X047879Y054240
X047879Y051700
X040259Y051700
X040259Y054240
X040259Y056780
X040259Y059320
T03
X088011Y073660
X099441Y031750
X096901Y031750
X094361Y031750
X091821Y031750
X088011Y076200
X088011Y071120
X088011Y068580
X088011Y066040
X088011Y063500
X088011Y060960
X088011Y058420
X088011Y055880
X088011Y053340
X088011Y050800
X088011Y048260
X088011Y045847
X088011Y043180
X088011Y040640
X088011Y038100
X088011Y035560
X088011Y033020
X088011Y030480
X088011Y027940
X103251Y076200
X103251Y073660
X103251Y071120
X103251Y068580
X103251Y066040
X103251Y063500
X103251Y060960
X103251Y058420
X103251Y055880
X103251Y053340
X103251Y050800
X103251Y048260
X103251Y045720
X103251Y043053
X103251Y040640
X103251Y038100
X103251Y035560
X103251Y033020
X103251Y030480
X103251Y027940
X036068Y048260
X049149Y048260
X032385Y071374
X032512Y063627
X039243Y074168
X039243Y063246
X026797Y073787
X026797Y061214
X074803Y073787
X074930Y066040
X079502Y046990
X079375Y037719
X053391Y030353
X042760Y030353
T04
X025397Y022352G85X025403Y022352
X027937Y022352G85X027943Y022352
X030477Y022352G85X030483Y022352
X033017Y022352G85X033023Y022352
X035557Y022352G85X035563Y022352
X038097Y022352G85X038103Y022352
X053718Y022352G85X053724Y022352
X056258Y022352G85X056264Y022352
X058798Y022352G85X058804Y022352
X061338Y022352G85X061344Y022352
X063878Y022352G85X063884Y022352
X066418Y022352G85X066424Y022352
X077597Y053213
X080137Y053213
T05
X067290Y078232
X069790Y078232
X064790Y078232
X062290Y078232
X051288Y077724
X053788Y077724
X048788Y077724
X046288Y077724
X029718Y056953
X029718Y067253
X049219Y040513
X038919Y040513
X019177Y060255
X019177Y070555
X038919Y045339
X049219Y045339
X051632Y070612
X041332Y070612
X014605Y060001
X014605Y070301
X060509Y043434
X070809Y043434
X070936Y038989
X060636Y038989
X055556Y070485
X065856Y070485
X069723Y074492
X069723Y064192
X058077Y085344
X058166Y079248
X050419Y027813
X050394Y014859
T06
X033675Y077851
X036175Y077851
X021991Y077724
X024491Y077724
X016637Y050693
X016637Y053193
T07
X109855Y084201
X011557Y084201
X011684Y016256
X109982Y016256
M30
