G04 Layer: TopLayer*
G04 EasyEDA v6.5.46, 2024-09-03 21:34:31*
G04 a3a5ef0e5d234bae984b2533349a5239,230d3d8e61244ae18bc76ebd04fb3888,10*
G04 Gerber Generator version 0.2*
G04 Scale: 100 percent, Rotated: No, Reflected: No *
G04 Dimensions in millimeters *
G04 leading zeros omitted , absolute positions ,4 integer and 5 decimal *
%FSLAX45Y45*%
%MOMM*%

%ADD10C,1.0000*%
%ADD11C,1.8000*%
%ADD12R,1.8000X1.8000*%
%ADD13O,0.9999979999999999X0.9999979999999999*%
%ADD14R,1.0000X1.0000*%
%ADD15O,1.7999964X1.7999964*%

%LPD*%
D10*
X7759700Y5321300D02*
G01*
X8013700Y5321300D01*
X5041900Y2781300D02*
G01*
X5039359Y1485900D01*
X5816600Y7924800D02*
G01*
X5816600Y8525499D01*
X5807699Y8534400D01*
X3606800Y4826000D02*
G01*
X4914900Y4826000D01*
X3238500Y7137400D02*
G01*
X3238500Y6375400D01*
X3251200Y6362700D01*
X2679700Y7378700D02*
G01*
X2679700Y6121400D01*
X7950200Y4699000D02*
G01*
X7950200Y3784600D01*
X7937500Y3771900D01*
X5339082Y3035300D02*
G01*
X4276044Y3035300D01*
X3924300Y7416800D02*
G01*
X3924300Y6324600D01*
X7480300Y7378700D02*
G01*
X7493000Y7366000D01*
X7493000Y6604000D01*
D11*
G01*
X5384800Y5930900D03*
G01*
X5384800Y6438900D03*
G01*
X6159500Y5918200D03*
G01*
X6159500Y6426200D03*
G01*
X6794500Y4991100D03*
G01*
X7302500Y4991100D03*
D12*
G01*
X8712200Y1854200D03*
G01*
X8966200Y1854200D03*
G01*
X9220200Y1854200D03*
G01*
X9474200Y1854200D03*
G01*
X9728200Y1854200D03*
G01*
X8458200Y1854200D03*
D11*
G01*
X6159500Y4953000D03*
G01*
X6159500Y5461000D03*
G01*
X5384800Y4965700D03*
G01*
X5384800Y5473700D03*
G01*
X3367531Y7785100D03*
G01*
X3617518Y7785100D03*
G01*
X2199106Y7772400D03*
G01*
X2449093Y7772400D03*
G01*
X6729018Y7823200D03*
D12*
G01*
X6979005Y7823200D03*
D11*
G01*
X6479006Y7823200D03*
G01*
X6229019Y7823200D03*
G01*
X5128793Y7772400D03*
D12*
G01*
X5378805Y7772400D03*
D11*
G01*
X4878781Y7772400D03*
G01*
X4628794Y7772400D03*
D13*
G01*
X3619500Y6934200D03*
G01*
X3619500Y7061200D03*
D14*
G01*
X3619500Y7188200D03*
D13*
G01*
X2336800Y6908800D03*
G01*
X2336800Y7035800D03*
D14*
G01*
X2336800Y7162800D03*
D11*
G01*
X2971800Y5695289D03*
G01*
X2971800Y6725310D03*
G01*
X4921910Y4051300D03*
G01*
X3891889Y4051300D03*
G01*
X1917700Y6025489D03*
G01*
X1917700Y7055510D03*
G01*
X3891889Y4533900D03*
G01*
X4921910Y4533900D03*
G01*
X5163210Y7061200D03*
G01*
X4133189Y7061200D03*
G01*
X1460500Y6000089D03*
G01*
X1460500Y7030110D03*
G01*
X6050889Y4343400D03*
G01*
X7080910Y4343400D03*
G01*
X7093610Y3898900D03*
G01*
X6063589Y3898900D03*
G01*
X5555589Y7048500D03*
G01*
X6585610Y7048500D03*
D15*
G01*
X4787900Y5932043D03*
G01*
X4787900Y5678043D03*
G01*
X4787900Y5424043D03*
G01*
X4787900Y5170043D03*
G01*
X4025900Y5170043D03*
G01*
X4025900Y5424043D03*
G01*
X4025900Y5678043D03*
G01*
X4025900Y5932043D03*
G01*
X2540000Y2235200D03*
G01*
X2794000Y2235200D03*
G01*
X3048000Y2235200D03*
G01*
X3302000Y2235200D03*
G01*
X3556000Y2235200D03*
G01*
X3810000Y2235200D03*
G01*
X5372100Y2235200D03*
G01*
X5626100Y2235200D03*
G01*
X5880100Y2235200D03*
G01*
X6134100Y2235200D03*
G01*
X6388100Y2235200D03*
G01*
X6642100Y2235200D03*
D11*
G01*
X6972300Y7449210D03*
G01*
X6972300Y6419189D03*
D12*
G01*
X8801100Y7366000D03*
D11*
G01*
X9944100Y3175000D03*
G01*
X9690100Y3175000D03*
G01*
X9436100Y3175000D03*
G01*
X9182100Y3175000D03*
D12*
G01*
X8801100Y7620000D03*
D15*
G01*
X8801100Y7112000D03*
D11*
G01*
X8801100Y6858000D03*
G01*
X8801100Y6604000D03*
G01*
X8801100Y6350000D03*
G01*
X8801100Y6096000D03*
G01*
X8801100Y5842000D03*
G01*
X8801100Y5588000D03*
G01*
X8801100Y5334000D03*
G01*
X8801100Y5080000D03*
G01*
X8801100Y4826000D03*
G01*
X8801100Y4584700D03*
G01*
X8801100Y4318000D03*
G01*
X8801100Y4064000D03*
G01*
X8801100Y3810000D03*
G01*
X8801100Y3556000D03*
G01*
X8801100Y3302000D03*
G01*
X8801100Y3048000D03*
G01*
X8801100Y2794000D03*
G01*
X10325100Y7620000D03*
G01*
X10325100Y7366000D03*
G01*
X10325100Y7112000D03*
G01*
X10325100Y6858000D03*
G01*
X10325100Y6604000D03*
G01*
X10325100Y6350000D03*
G01*
X10325100Y6096000D03*
G01*
X10325100Y5842000D03*
G01*
X10325100Y5588000D03*
G01*
X10325100Y5334000D03*
G01*
X10325100Y5080000D03*
G01*
X10325100Y4826000D03*
G01*
X10325100Y4572000D03*
G01*
X10325100Y4305300D03*
G01*
X10325100Y4064000D03*
G01*
X10325100Y3810000D03*
G01*
X10325100Y3556000D03*
G01*
X10325100Y3302000D03*
G01*
X10325100Y3048000D03*
G01*
X10325100Y2794000D03*
G01*
X1663700Y5069306D03*
G01*
X1663700Y5319293D03*
G01*
X3606800Y4826000D03*
G01*
X4914900Y4826000D03*
G01*
X3238500Y7137400D03*
G01*
X3251200Y6362700D03*
G01*
X3924300Y7416800D03*
G01*
X3924300Y6324600D03*
G01*
X2679700Y7378700D03*
G01*
X2679700Y6121400D03*
G01*
X7480300Y7378700D03*
G01*
X7493000Y6604000D03*
G01*
X7950200Y4699000D03*
G01*
X7937500Y3771900D03*
G01*
X5339079Y3035300D03*
G01*
X4276039Y3035300D03*
G01*
X5807709Y8534400D03*
G01*
X5816600Y7924800D03*
G01*
X5041900Y2781300D03*
G01*
X5039385Y1485900D03*
G01*
X7759700Y5321300D03*
G01*
X8013700Y5321300D03*
G01*
X10985500Y8420100D03*
G01*
X1155700Y8420100D03*
G01*
X1168400Y1625600D03*
G01*
X10998200Y1625600D03*
M02*
