G04 Layer: BottomLayer*
G04 EasyEDA v6.5.46, 2024-09-03 21:34:31*
G04 a3a5ef0e5d234bae984b2533349a5239,230d3d8e61244ae18bc76ebd04fb3888,10*
G04 Gerber Generator version 0.2*
G04 Scale: 100 percent, Rotated: No, Reflected: No *
G04 Dimensions in millimeters *
G04 leading zeros omitted , absolute positions ,4 integer and 5 decimal *
%FSLAX45Y45*%
%MOMM*%

%ADD10C,1.0000*%
%ADD11R,1.8000X1.8000*%
%ADD12C,1.8000*%
%ADD13O,0.9999979999999999X0.9999979999999999*%
%ADD14R,1.0000X1.0000*%
%ADD15O,1.7999964X1.7999964*%
%ADD16O,0.0129X1.7999964*%

%LPD*%
D10*
X6979005Y7823200D02*
G01*
X7480300Y7378700D01*
X7480300Y7378700D01*
X6978904Y7823200D02*
G01*
X6591300Y7340600D01*
X6585711Y7048500D01*
X7950200Y4699000D02*
G01*
X7658100Y4991100D01*
X7302500Y4991100D01*
X8013700Y5321300D02*
G01*
X8013700Y5448300D01*
X7823200Y5638800D01*
X7823200Y6273800D01*
X7493000Y6604000D01*
X8013700Y5321300D02*
G01*
X8013700Y5118100D01*
X7950200Y5054600D01*
X7950200Y4699000D01*
X7306589Y5332603D02*
G01*
X7748397Y5332603D01*
X7759700Y5321300D01*
X9220200Y1854200D02*
G01*
X9220200Y2705100D01*
X9004300Y2921000D01*
X9004300Y3873500D01*
X9956800Y4826000D01*
X10325100Y4826000D01*
X7937500Y3771900D02*
G01*
X7937500Y3073400D01*
X7658100Y2794000D01*
X2336800Y7162800D02*
G01*
X2336800Y7543800D01*
X2449068Y7656068D01*
X2449068Y7772400D01*
X10325100Y6858000D02*
G01*
X9740900Y6858000D01*
X9474200Y7124700D01*
X9474200Y7607300D01*
X8724900Y8356600D01*
X5600700Y8356600D01*
X5128790Y7884690D01*
X5128790Y7772400D01*
X5128768Y7772400D02*
G01*
X5128768Y7672831D01*
X5555488Y7246112D01*
X5555488Y7048500D01*
X2336800Y6908800D02*
G01*
X2336800Y6146800D01*
X1663700Y5473700D01*
X1663700Y5319268D01*
X10325100Y7366000D02*
G01*
X10020300Y7366000D01*
X8851900Y8534400D01*
X5807694Y8534400D01*
X6728965Y7823200D02*
G01*
X6807200Y8001000D01*
X8610600Y8001000D01*
X9080500Y7531100D01*
X9080500Y4597400D01*
X8801100Y4318000D01*
X6479034Y7823200D02*
G01*
X6680200Y8191500D01*
X8674100Y8178800D01*
X9283700Y7569200D01*
X9283700Y4546600D01*
X8801100Y4064000D01*
X6979005Y7823200D02*
G01*
X6979005Y7455913D01*
X6972300Y7449207D01*
X6159500Y6426200D02*
G01*
X6362700Y6223000D01*
X7442200Y6223000D01*
X7607300Y6057900D01*
X7607300Y5689600D01*
X7480300Y5562600D01*
X7306563Y5562600D01*
X4878831Y7772400D02*
G01*
X4878831Y7643368D01*
X5346700Y7175500D01*
X5346700Y6896100D01*
X5473700Y6769100D01*
X6126988Y6769100D01*
X6502400Y6426200D01*
X6965289Y6426200D01*
X6972300Y6419189D01*
X6972300Y6419192D02*
G01*
X7131707Y6419192D01*
X7188200Y6489700D01*
X7188200Y6845300D01*
X7264400Y6921500D01*
X7581900Y6921500D01*
X8064500Y6438900D01*
X8064500Y5816600D01*
X8801100Y5080000D01*
X5626100Y2235200D02*
G01*
X5626100Y2425700D01*
X5384800Y2667000D01*
X5156200Y2667000D01*
X5032908Y2790291D01*
X5032908Y2790291D02*
G01*
X4922011Y2901187D01*
X4922011Y4051300D01*
X5372100Y2235200D02*
G01*
X5156200Y2235200D01*
X4559300Y2832100D01*
X4559300Y4229100D01*
X4864100Y4533900D01*
X4922011Y4533900D01*
X7306589Y5562600D02*
G01*
X6739610Y5562600D01*
X6229019Y7823200D02*
G01*
X5918200Y7823200D01*
X5816600Y7924800D01*
X5807699Y8534400D02*
G01*
X5092700Y8534400D01*
X4622800Y8064500D01*
X4622800Y7778495D01*
X4628895Y7772400D01*
X4921910Y4533897D02*
G01*
X4521200Y4934607D01*
X4521200Y5270500D01*
X4674743Y5424043D01*
X4787900Y5424043D01*
X3891788Y4051300D02*
G01*
X4241800Y4470400D01*
X4241800Y5626100D01*
X4189984Y5677915D01*
X4025900Y5677915D01*
X3302000Y2235200D02*
G01*
X3302000Y2387600D01*
X3314700Y2400300D01*
X3314700Y2590800D01*
X3467100Y2743200D01*
X4330700Y2743200D01*
X4673600Y2400300D01*
X4686300Y2400300D01*
X4686300Y2108200D01*
X4838700Y1955800D01*
X5943600Y1955800D01*
X6134100Y2146300D01*
X6134100Y2235200D01*
X3556000Y2235200D02*
G01*
X3556000Y2425700D01*
X3657600Y2527300D01*
X4267200Y2527300D01*
X4483100Y2311400D01*
X4483100Y1955800D01*
X4711700Y1727200D01*
X6070600Y1727200D01*
X6388100Y2044700D01*
X6388100Y2235200D01*
X3891889Y4533897D02*
G01*
X4025900Y4667907D01*
X4025900Y5170043D01*
X2336800Y6908800D02*
G01*
X3594112Y6908800D01*
X3619500Y6934187D01*
X3619500Y7188200D02*
G01*
X3617468Y7785100D01*
X6642100Y2235200D02*
G01*
X6642100Y1866900D01*
X6261100Y1485900D01*
X5039380Y1485900D01*
X5039380Y1485900D02*
G01*
X4368800Y1485900D01*
X3810000Y2044700D01*
X3810000Y2235200D01*
X5339082Y3035300D02*
G01*
X5461000Y3035300D01*
X5880100Y2616200D01*
X5880100Y2235200D01*
X3048000Y2489200D02*
G01*
X3048000Y2870200D01*
X3213100Y3035300D01*
X4276044Y3035300D01*
X6388100Y2235200D02*
G01*
X6388100Y2387600D01*
X6794500Y2794000D01*
X8801100Y2794000D01*
X3048000Y2235200D02*
G01*
X3048000Y2489200D01*
X3594100Y1917700D02*
G01*
X3657600Y1917700D01*
X3810000Y2070100D01*
X3810000Y2235200D02*
G01*
X3810000Y2070100D01*
X2540000Y2235200D02*
G01*
X2540000Y3517900D01*
X3073400Y4051300D01*
X3891879Y4051300D01*
X5384800Y5930900D02*
G01*
X6146800Y5930900D01*
X6172200Y5905500D01*
X6172200Y5905500D02*
G01*
X6159500Y5892800D01*
X6159500Y5461000D01*
X5384800Y5473700D02*
G01*
X5384800Y5905500D01*
X5397500Y5918200D01*
X4787900Y5931915D02*
G01*
X5384800Y5930900D01*
X6159500Y5918200D02*
G01*
X6248400Y6007100D01*
X7213600Y6007100D01*
X7306589Y5914110D01*
X7306589Y5792596D01*
X8966200Y1854200D02*
G01*
X8966200Y2628900D01*
X8801100Y2794000D01*
X2336800Y7035800D02*
G01*
X1937407Y7035800D01*
X1917700Y7055507D01*
X5378805Y7772400D02*
G01*
X6102705Y7048500D01*
X6585607Y7048500D01*
X2199109Y7772400D02*
G01*
X1460500Y7033790D01*
X1460500Y7030110D01*
X1460500Y7030110D02*
G01*
X1193800Y6763410D01*
X1193800Y4432300D01*
X1358900Y4267200D01*
X1905000Y4267200D01*
X2463800Y4826000D01*
X3606800Y4826000D01*
X1460500Y7030110D02*
G01*
X1193800Y6763410D01*
X1193800Y5651500D01*
X4914900Y4826000D02*
G01*
X4787900Y4953000D01*
X4787900Y5170043D01*
X2971800Y6725310D02*
G01*
X2971800Y7594600D01*
X3162300Y7785100D01*
X3367521Y7785100D01*
X5880100Y2235200D02*
G01*
X5880100Y4172612D01*
X6050889Y4343402D01*
X6063589Y3898897D02*
G01*
X6134100Y3828387D01*
X6134100Y2235200D01*
X6050892Y4343400D02*
G01*
X6457292Y4749800D01*
X7531100Y4749800D01*
X7962900Y4318000D01*
X8801100Y4318000D01*
X6063592Y3898900D02*
G01*
X6749392Y4584700D01*
X7429500Y4584700D01*
X7950200Y4064000D01*
X8801100Y4064000D01*
X7080910Y4343402D02*
G01*
X7093610Y4330702D01*
X7093610Y3898897D01*
X7093610Y3898897D02*
G01*
X6388100Y3193387D01*
X6388100Y2235200D01*
X3619500Y7061200D02*
G01*
X4133189Y7061200D01*
X3924300Y7416800D02*
G01*
X4133192Y7207907D01*
X4133192Y7061200D01*
X2336800Y7035800D02*
G01*
X2451100Y7035800D01*
X2679700Y7264400D01*
X2679700Y7378700D01*
X3367534Y7785100D02*
G01*
X3238500Y7656065D01*
X3238500Y7137400D01*
X3619500Y6934200D02*
G01*
X4013200Y6934200D01*
X4432300Y6515100D01*
X4432300Y6362700D01*
X4787900Y6007100D01*
X4787900Y5931915D01*
X3251200Y6362700D02*
G01*
X3581400Y6032500D01*
X3581400Y5651500D01*
X3808859Y5424040D01*
X4025900Y5424040D01*
X9474200Y1854200D02*
G01*
X9474200Y2641600D01*
X9829800Y2997200D01*
X9829800Y4076700D01*
X10325100Y4572000D01*
X2679700Y6121400D02*
G01*
X3162300Y6604000D01*
X3861815Y6604000D01*
X4787900Y5677915D01*
X3924300Y6324600D02*
G01*
X4025900Y6223000D01*
X4025900Y5932043D01*
X4921910Y4051300D02*
G01*
X5384800Y4514189D01*
X5384800Y4965700D01*
X5384800Y4965700D02*
G01*
X5397500Y4953000D01*
X6159500Y4953000D01*
X6159500Y4953000D02*
G01*
X6197600Y4991100D01*
X6794500Y4991100D01*
X4025900Y5170043D02*
G01*
X3497046Y5170043D01*
X2971800Y5695289D01*
X2971800Y5695289D02*
G01*
X2345816Y5069306D01*
X1663700Y5069306D01*
X1663700Y5069306D02*
G01*
X1460500Y5272506D01*
X1460500Y6000089D01*
X1460500Y6000089D02*
G01*
X1485900Y6025489D01*
X1917700Y6025489D01*
X5384800Y6438900D02*
G01*
X5163210Y6660489D01*
X5163210Y7061200D01*
X5163207Y7061200D02*
G01*
X4628794Y7595613D01*
X4628794Y7772400D01*
X6739608Y5562600D02*
G01*
X6794500Y5507708D01*
X6794500Y4991100D01*
X6159500Y6426200D02*
G01*
X6146800Y6438900D01*
X5384800Y6438900D01*
X6642100Y2235200D02*
G01*
X7023100Y1854200D01*
X8458200Y1854200D01*
X3891788Y4533900D02*
G01*
X2743200Y4533900D01*
X2109724Y3898900D01*
X2109724Y1739900D01*
X2628900Y1739900D01*
X2794000Y1905000D01*
X2794000Y2235200D01*
X2794000Y2235200D02*
G01*
X2794000Y1981200D01*
X2857500Y1917700D01*
X3594100Y1917700D01*
D11*
G01*
X7306589Y5792596D03*
G01*
X7306589Y5562600D03*
G01*
X7306589Y5332603D03*
G01*
X6739610Y5562600D03*
D12*
G01*
X5384800Y5930900D03*
G01*
X5384800Y6438900D03*
G01*
X6159500Y5918200D03*
G01*
X6159500Y6426200D03*
G01*
X6794500Y4991100D03*
G01*
X7302500Y4991100D03*
D11*
G01*
X8712200Y1854200D03*
G01*
X8966200Y1854200D03*
G01*
X9220200Y1854200D03*
G01*
X9474200Y1854200D03*
G01*
X9728200Y1854200D03*
G01*
X8458200Y1854200D03*
D12*
G01*
X6159500Y4953000D03*
G01*
X6159500Y5461000D03*
G01*
X5384800Y4965700D03*
G01*
X5384800Y5473700D03*
G01*
X3367531Y7785100D03*
G01*
X3617518Y7785100D03*
G01*
X2199106Y7772400D03*
G01*
X2449093Y7772400D03*
G01*
X6729018Y7823200D03*
D11*
G01*
X6979005Y7823200D03*
D12*
G01*
X6479006Y7823200D03*
G01*
X6229019Y7823200D03*
G01*
X5128793Y7772400D03*
D11*
G01*
X5378805Y7772400D03*
D12*
G01*
X4878781Y7772400D03*
G01*
X4628794Y7772400D03*
D13*
G01*
X3619500Y6934200D03*
G01*
X3619500Y7061200D03*
D14*
G01*
X3619500Y7188200D03*
D13*
G01*
X2336800Y6908800D03*
G01*
X2336800Y7035800D03*
D14*
G01*
X2336800Y7162800D03*
D12*
G01*
X2971800Y5695289D03*
G01*
X2971800Y6725310D03*
G01*
X4921910Y4051300D03*
G01*
X3891889Y4051300D03*
G01*
X1917700Y6025489D03*
G01*
X1917700Y7055510D03*
G01*
X3891889Y4533900D03*
G01*
X4921910Y4533900D03*
G01*
X5163210Y7061200D03*
G01*
X4133189Y7061200D03*
G01*
X1460500Y6000089D03*
G01*
X1460500Y7030110D03*
G01*
X6050889Y4343400D03*
G01*
X7080910Y4343400D03*
G01*
X7093610Y3898900D03*
G01*
X6063589Y3898900D03*
G01*
X5555589Y7048500D03*
G01*
X6585610Y7048500D03*
D15*
G01*
X4787900Y5932043D03*
G01*
X4787900Y5678043D03*
G01*
X4787900Y5424043D03*
G01*
X4787900Y5170043D03*
G01*
X4025900Y5170043D03*
G01*
X4025900Y5424043D03*
G01*
X4025900Y5678043D03*
G01*
X4025900Y5932043D03*
G01*
X2540000Y2235200D03*
G01*
X2794000Y2235200D03*
G01*
X3048000Y2235200D03*
G01*
X3302000Y2235200D03*
G01*
X3556000Y2235200D03*
G01*
X3810000Y2235200D03*
G01*
X5372100Y2235200D03*
G01*
X5626100Y2235200D03*
G01*
X5880100Y2235200D03*
G01*
X6134100Y2235200D03*
G01*
X6388100Y2235200D03*
G01*
X6642100Y2235200D03*
D12*
G01*
X6972300Y7449210D03*
G01*
X6972300Y6419189D03*
D11*
G01*
X8801100Y7366000D03*
D12*
G01*
X9944100Y3175000D03*
G01*
X9690100Y3175000D03*
G01*
X9436100Y3175000D03*
G01*
X9182100Y3175000D03*
D11*
G01*
X8801100Y7620000D03*
D15*
G01*
X8801100Y7112000D03*
D12*
G01*
X8801100Y6858000D03*
G01*
X8801100Y6604000D03*
G01*
X8801100Y6350000D03*
G01*
X8801100Y6096000D03*
G01*
X8801100Y5842000D03*
G01*
X8801100Y5588000D03*
G01*
X8801100Y5334000D03*
G01*
X8801100Y5080000D03*
G01*
X8801100Y4826000D03*
G01*
X8801100Y4584700D03*
G01*
X8801100Y4318000D03*
G01*
X8801100Y4064000D03*
G01*
X8801100Y3810000D03*
G01*
X8801100Y3556000D03*
G01*
X8801100Y3302000D03*
G01*
X8801100Y3048000D03*
G01*
X8801100Y2794000D03*
G01*
X10325100Y7620000D03*
G01*
X10325100Y7366000D03*
G01*
X10325100Y7112000D03*
G01*
X10325100Y6858000D03*
G01*
X10325100Y6604000D03*
G01*
X10325100Y6350000D03*
G01*
X10325100Y6096000D03*
G01*
X10325100Y5842000D03*
G01*
X10325100Y5588000D03*
G01*
X10325100Y5334000D03*
G01*
X10325100Y5080000D03*
G01*
X10325100Y4826000D03*
G01*
X10325100Y4572000D03*
G01*
X10325100Y4305300D03*
G01*
X10325100Y4064000D03*
G01*
X10325100Y3810000D03*
G01*
X10325100Y3556000D03*
G01*
X10325100Y3302000D03*
G01*
X10325100Y3048000D03*
G01*
X10325100Y2794000D03*
G01*
X1663700Y5069306D03*
G01*
X1663700Y5319293D03*
G01*
X3606800Y4826000D03*
G01*
X4914900Y4826000D03*
G01*
X3238500Y7137400D03*
G01*
X3251200Y6362700D03*
G01*
X3924300Y7416800D03*
G01*
X3924300Y6324600D03*
G01*
X2679700Y7378700D03*
G01*
X2679700Y6121400D03*
G01*
X7480300Y7378700D03*
G01*
X7493000Y6604000D03*
G01*
X7950200Y4699000D03*
G01*
X7937500Y3771900D03*
G01*
X5339079Y3035300D03*
G01*
X4276039Y3035300D03*
G01*
X5807709Y8534400D03*
G01*
X5816600Y7924800D03*
G01*
X5041900Y2781300D03*
G01*
X5039385Y1485900D03*
G01*
X7759700Y5321300D03*
G01*
X8013700Y5321300D03*
G01*
X10985500Y8420100D03*
G01*
X1155700Y8420100D03*
G01*
X1168400Y1625600D03*
G01*
X10998200Y1625600D03*
M02*
